<svg width="97" height="52" viewBox="0 0 97 52" fill="none" xmlns="http://www.w3.org/2000/svg">
<g clip-path="url(#clip0_4921_1597)">
<path d="M34.6734 25.7206C34.558 25.7206 34.4362 25.7269 34.3209 25.7269C33.1481 25.7522 31.9753 25.7901 30.7961 25.8027C30.7063 25.8027 30.5397 25.708 30.5269 25.6448C30.4948 25.3984 30.5141 25.1457 30.5141 24.8677C30.623 24.8677 30.7063 24.8677 30.7896 24.8677C32.0586 24.8424 33.3275 24.7982 34.6029 24.7982C35.5321 24.8045 35.9295 24.059 35.891 23.3325C35.859 22.745 35.3976 22.347 34.7759 22.3533C34.244 22.3596 33.8979 22.7134 33.8851 23.2693C33.8787 23.5726 34.0838 23.7305 34.3593 23.5852C34.4555 23.5347 34.5196 23.3767 34.5516 23.2504C34.6157 23.0419 34.7631 22.9155 34.9489 22.9977C35.0579 23.0482 35.1604 23.2504 35.1604 23.3831C35.154 23.7053 34.9297 23.9201 34.5965 23.9643C34.3529 24.0022 34.1094 24.0148 33.8659 24.0275C32.8405 24.0717 31.8215 24.1159 30.7961 24.1601C30.6358 24.1664 30.4756 24.1475 30.4948 23.939C30.5269 23.5726 30.3218 23.4905 30.0078 23.5031C29.6168 23.5157 29.2259 23.5031 28.8286 23.5031C28.8286 23.2504 28.8093 23.0293 28.835 22.8145C28.867 22.5554 28.7645 22.467 28.5209 22.4796C28.1556 22.4986 27.7839 22.5618 27.4378 22.4923C27.2007 22.4417 26.9764 22.2206 26.8098 22.0311C26.7649 21.9805 26.9251 21.7089 27.0405 21.5825C27.4699 21.1276 27.8993 20.6791 28.3543 20.2558C29.713 18.9923 31.078 17.7414 32.4367 16.4841C32.5585 16.3704 32.6674 16.2504 32.8084 16.1051C32.488 15.8208 32.206 15.5554 31.9048 15.3027C31.4882 14.9553 31.4818 14.9553 31.1357 15.3596C29.7963 16.9137 28.4633 18.4742 27.1238 20.0284C26.7265 20.4896 26.3291 20.9507 25.919 21.4246C24.9641 20.7738 23.9643 20.2621 22.7979 20.1547C22.7979 19.9525 22.7851 19.782 22.7979 19.6177C22.8171 19.3524 22.721 19.2197 22.4326 19.2513C22.266 19.2702 22.0929 19.2513 21.9199 19.2513C21.1124 19.2386 21.106 19.2386 21.0996 20.0157C21.0996 20.2179 21.0098 20.2874 20.8368 20.3822C20.3625 20.6412 19.8627 20.8812 19.4717 21.2414C18.5681 22.069 18.1643 23.1683 17.9785 24.3497C17.94 24.5771 17.8631 24.6592 17.6388 24.6529C17.3504 24.6466 17.062 24.6719 16.7736 24.6655C16.5878 24.6655 16.498 24.7224 16.498 24.9183C16.5045 25.2973 16.498 25.6764 16.4852 26.0554C16.4788 26.2955 16.5878 26.365 16.8121 26.3587C17.1325 26.3524 17.453 26.3713 17.7734 26.3713C17.9657 26.3713 18.0746 26.4408 18.1579 26.6303C18.2989 26.9589 18.4527 27.2937 18.6706 27.5717C19.1256 28.1655 19.6512 28.6962 20.4394 28.8226C20.8176 28.8858 21.2021 28.93 21.5802 28.93C23.1504 28.93 24.3296 27.8876 24.4834 26.3587C24.5539 25.6322 24.477 24.9309 24.022 24.3118C23.7784 23.9896 23.49 23.8442 23.0863 23.9201C22.6825 23.9959 22.4134 24.2296 22.3364 24.6087C22.266 24.9498 22.2724 25.3163 22.2788 25.6701C22.2916 26.3524 21.875 26.8515 21.2982 26.763C20.8304 26.6935 20.4266 26.4535 20.2792 25.9986C19.9588 25.0193 19.9524 24.0211 20.3946 23.0735C20.5484 22.7323 20.8176 22.3849 21.1316 22.189C22.0673 21.5951 23.0863 21.6394 24.0796 22.0374C25.214 22.4923 25.9061 23.3831 26.3291 24.4823C26.406 24.6845 26.515 24.7603 26.7265 24.754C27.0597 24.7477 27.3866 24.7603 27.7198 24.7666C27.9441 24.7729 28.0787 24.8677 28.0851 25.1141C28.0915 25.5248 28.0915 25.9354 28.1108 26.3461C28.1236 26.5672 28.0275 26.643 27.816 26.6619C27.4122 26.6872 27.0085 26.7377 26.6047 26.7693C26.4445 26.782 26.3676 26.8451 26.3419 27.0157C26.2843 27.3379 26.2138 27.6601 26.1112 27.9634C25.6562 29.3027 24.9256 30.3894 23.4388 30.7684C23.2593 30.8127 23.2145 30.9201 23.2145 31.0906C23.2209 31.5834 23.208 32.0825 23.2209 32.5753C23.2273 32.7901 23.144 32.847 22.9453 32.847C22.4198 32.8406 21.9007 32.8343 21.3751 32.8533C21.1444 32.8596 21.0483 32.7964 21.0547 32.5563C21.0675 32.1457 21.0483 31.735 21.0419 31.3244C21.0419 31.1475 20.9778 31.0401 20.7727 31.0085C19.9844 30.8822 19.2026 30.7305 18.4143 30.6042C18.2989 30.5852 18.1259 30.6231 18.0554 30.6989C17.6644 31.1096 17.2863 31.5455 16.9146 31.9751C15.8636 33.1944 14.8189 34.4137 13.7743 35.6331C13.4282 36.0374 13.0886 36.4544 12.7297 36.8966C12.9988 37.124 13.2424 37.3199 13.4795 37.5284C13.6718 37.6989 13.8064 37.6547 13.9409 37.4589C14.4793 36.7007 15.0112 35.9426 15.5688 35.1971C16.2994 34.2116 17.0364 33.2387 17.7798 32.2594C17.8375 32.1836 17.9657 32.1078 18.0554 32.1204C18.7539 32.1899 18.8693 32.2973 18.959 32.967C18.9718 33.0681 19.0039 33.1755 18.9975 33.2766C18.959 33.6177 19.1192 33.6998 19.4397 33.6872C20.2536 33.6683 20.2664 33.6809 20.26 34.4832C20.26 34.7928 20.3369 34.9065 20.6766 34.8939C21.4392 34.8623 21.4456 34.8749 21.4456 35.6078C21.452 36.587 21.452 37.5663 21.4392 38.5455C21.4328 38.9372 21.1829 39.2278 20.856 39.2657C20.6702 39.2847 20.4715 39.272 20.4202 39.0509C20.3754 38.8424 20.4907 38.7161 20.7022 38.6719C20.7727 38.6592 20.8817 38.6403 20.9073 38.5961C20.9714 38.4634 21.0226 38.3181 21.0226 38.1728C21.0226 38.1159 20.8817 38.0148 20.8047 38.0085C20.0549 37.939 19.555 38.6087 19.8306 39.3036C20.0998 39.9859 20.965 40.2197 21.6699 39.7964C22.0481 39.5627 22.2724 39.2468 22.2595 38.7856C22.2339 37.6484 22.2147 36.5175 22.1955 35.3803C22.189 34.8307 22.1955 34.8433 22.753 34.8181C23.0286 34.8054 23.1311 34.8876 23.1311 35.1655C23.1311 36.347 23.1696 37.522 23.1696 38.7035C23.1696 39.2531 23.4388 39.6132 23.9066 39.8217C24.3744 40.0302 24.8615 40.0365 25.2973 39.7016C25.6306 39.4426 25.7652 38.893 25.6049 38.4886C25.4575 38.1285 25.1115 37.9327 24.65 37.9516C24.4834 37.958 24.4065 38.0211 24.3873 38.1917C24.3616 38.4634 24.4962 38.5771 24.7397 38.6213C24.932 38.6592 25.0538 38.7666 25.0281 38.9688C25.0025 39.1962 24.8295 39.2152 24.65 39.2152C24.2719 39.2152 23.9835 38.9119 23.9643 38.4823C23.9194 37.3578 23.8938 36.2332 23.8425 35.1087C23.8297 34.8497 23.9194 34.7612 24.1822 34.7612C24.6436 34.7612 24.6436 34.7486 24.6436 34.3127C24.65 33.5356 24.65 33.5293 25.4447 33.485C25.6626 33.4724 25.7523 33.3966 25.7395 33.1818C25.7203 32.7396 25.7011 32.2973 25.7011 31.8551C25.7011 31.754 25.7523 31.6213 25.8292 31.5708C26.0984 31.3876 26.3868 31.2359 26.7329 31.0338C26.7521 31.0654 26.7841 31.1412 26.8354 31.1917C27.5404 31.9183 28.2454 32.6511 28.9631 33.3713C30.0526 34.4706 31.1549 35.5572 32.238 36.6565C32.4175 36.8397 32.5328 36.8397 32.6995 36.6565C32.9366 36.3975 33.1865 36.1574 33.4301 35.9047C33.5711 35.7594 33.5903 35.6457 33.4044 35.4941C32.6931 34.9065 32.0009 34.2937 31.3023 33.6935C30.0847 32.6511 28.867 31.615 27.6557 30.5663C27.5788 30.5031 27.534 30.3578 27.5404 30.2567C27.566 29.8713 27.6429 29.4859 27.6622 29.1006C27.6686 28.9047 27.7391 28.8415 27.9185 28.8289C28.2069 28.8036 28.4889 28.7468 28.7773 28.7468C29.0785 28.7468 29.1682 28.6141 29.149 28.3424C29.1298 28.0518 29.149 27.7549 29.1298 27.458C29.1169 27.2242 29.2003 27.1358 29.4374 27.1421C29.6937 27.1484 29.9501 27.1294 30.2064 27.1231C30.4115 27.1168 30.5397 27.041 30.5012 26.8199C30.4564 26.5672 30.5717 26.4914 30.8217 26.4914C32.0842 26.504 33.3403 26.504 34.6029 26.5166C35.0066 26.5229 35.2502 26.7567 35.2373 27.1484C35.2309 27.2558 35.1092 27.4516 35.0579 27.4453C34.9233 27.4264 34.7951 27.3316 34.6734 27.2495C34.6349 27.2179 34.6413 27.1294 34.6221 27.0726C34.5324 26.8136 34.3081 26.8831 34.135 26.921C34.0709 26.9336 33.9876 27.1042 33.994 27.1989C34.0133 27.7738 34.2953 28.0708 34.808 28.096C35.436 28.1276 35.891 27.8054 35.9872 27.2684C36.1282 26.3903 35.5642 25.7206 34.6734 25.7206Z" fill="#FAFAFA"/>
<path d="M15.8956 29.5435C15.0688 29.5498 15.0688 29.5498 15.0496 28.7348C15.0304 28.0083 15.0304 28.0083 14.3062 27.9893C13.7743 27.9767 13.7743 27.9767 13.7422 27.4523C13.7358 27.3007 13.7422 27.1428 13.5179 27.1491C12.3002 27.1933 11.0826 27.2249 9.87131 27.2944C9.47397 27.3133 9.19198 27.6924 9.2817 28.0462C9.31375 28.1662 9.47397 28.3494 9.56369 28.3431C9.69827 28.3368 9.82645 28.1915 9.94822 28.0904C9.98026 28.0652 9.95462 27.9641 9.98026 27.9451C10.0892 27.863 10.2046 27.7682 10.3263 27.7556C10.3776 27.7493 10.5058 27.9135 10.5186 28.0083C10.5699 28.5832 10.1277 29.0002 9.54446 28.9307C9.0638 28.8738 8.78823 28.6527 8.66005 28.1915C8.44215 27.4144 9.05739 26.5236 9.82004 26.5679C10.9031 26.631 11.999 26.5426 13.0821 26.5173C13.7038 26.5047 13.6909 26.4984 13.6781 25.9045C13.6717 25.5949 13.5564 25.5128 13.2552 25.5191C12.1144 25.557 10.9672 25.5191 9.83286 25.6139C8.83309 25.696 8.32679 24.6031 8.56392 23.9397C8.73055 23.4722 9.2817 23.1626 9.80081 23.2637C10.1469 23.3269 10.4289 23.7312 10.4032 24.1545C10.3968 24.2366 10.3199 24.3756 10.2622 24.3756C10.1533 24.3819 10.0187 24.344 9.92258 24.2809C9.8649 24.2429 9.8649 24.1292 9.83927 24.0471C9.76877 23.8386 9.58932 23.7565 9.40988 23.8323C9.29452 23.8765 9.16634 24.0345 9.14712 24.1608C9.09585 24.5272 9.48037 24.8874 9.90976 24.8874C11.0505 24.881 12.1913 24.8621 13.3385 24.8558C13.55 24.8558 13.6205 24.7736 13.614 24.5715C13.6012 24.3124 13.614 24.0471 13.614 23.7565C13.9986 23.7186 14.3767 23.668 14.7612 23.6428C14.9407 23.6301 15.0176 23.5606 15.0112 23.3901C15.0048 23.1184 14.9983 22.8404 14.9855 22.5688C14.9727 22.1707 14.9727 22.1707 15.3829 22.1707C15.7354 22.1707 16.0878 22.1707 16.4403 22.1707C16.4531 22.1328 16.4595 22.0949 16.4724 22.0633C14.6651 20.585 12.8578 19.113 11.0249 17.6094C8.90999 20.3449 7.8974 23.4027 8.00635 26.789C8.10889 29.9541 9.17275 32.7908 11.23 35.3115C13.2487 33.391 15.2291 31.502 17.2863 29.5498C16.7608 29.5435 16.3314 29.5435 15.8956 29.5435Z" fill="#FAFAFA"/>
<path d="M16.0623 18.633C16.5045 19.1131 16.9338 19.5996 17.3825 20.0797C17.5427 20.2566 17.7285 20.4083 17.9528 20.6231C17.9528 20.1113 17.9528 19.6628 17.9528 19.2205C17.9464 18.494 17.9464 18.494 18.677 18.4687C19.2154 18.4498 19.2154 18.4498 19.2026 17.9317C19.1833 17.1357 19.1833 17.1357 19.9844 17.1167C20.0293 17.1167 20.0677 17.1104 20.1126 17.1167C20.3049 17.1231 20.3754 17.0409 20.369 16.8514C20.3369 15.7711 20.3113 14.6844 20.2792 13.6041C20.2664 13.1871 19.9075 12.8649 19.4974 12.9028C19.3692 12.9155 19.1513 13.0481 19.1513 13.1303C19.1513 13.2629 19.2795 13.4019 19.382 13.5157C19.4397 13.5788 19.5935 13.5662 19.6319 13.6294C19.7024 13.7305 19.7345 13.8694 19.7409 13.9895C19.7473 14.04 19.6448 14.1348 19.5871 14.1411C19.2602 14.1664 18.9526 14.0653 18.7604 13.8126C18.5553 13.5472 18.472 13.225 18.6129 12.8902C18.6578 12.7765 18.7219 12.6754 18.8116 12.4922C18.6129 12.5364 18.4912 12.5617 18.3694 12.5933C16.5429 13.124 14.8959 13.9832 13.4282 15.1772C13.1014 15.4425 13.1078 15.4425 13.3898 15.7521C14.287 16.7061 15.1714 17.6664 16.0623 18.633Z" fill="#FAFAFA"/>
<path d="M23.3811 17.002C23.599 17.002 23.6951 17.0652 23.6887 17.2863C23.6887 17.5264 23.7335 17.7728 23.7207 18.0128C23.7079 18.2782 23.8297 18.373 24.0732 18.3666C24.3424 18.3603 24.6051 18.3793 24.8743 18.3666C25.1371 18.3477 25.2332 18.4361 25.2204 18.7078C25.2012 19.0995 25.214 19.4975 25.214 19.8892C25.2396 19.9018 25.2652 19.9082 25.2909 19.9208C26.7649 17.9118 28.2453 15.9027 29.7514 13.8495C27.9313 12.845 26.0471 12.2258 24.0091 12.0742C24.0476 12.1816 24.1181 12.2448 24.1693 12.3143C24.4449 12.6744 24.4449 13.0914 24.3039 13.4831C24.1822 13.8116 23.8489 13.9127 23.5156 13.9253C23.4195 13.9316 23.2401 13.8432 23.2465 13.8116C23.2593 13.6726 23.3234 13.5336 23.3811 13.4009C23.3939 13.3693 23.4772 13.363 23.5285 13.3504C23.7399 13.2935 23.8489 13.123 23.7656 12.9461C23.7079 12.8323 23.5092 12.7186 23.3746 12.7186C22.9965 12.706 22.7017 13.0598 22.7017 13.4894C22.7017 14.437 22.7145 15.3847 22.7145 16.3323C22.7145 17.002 22.7145 17.0083 23.3811 17.002Z" fill="#FAFAFA"/>
<path d="M20.9714 13.7242C20.9906 14.6466 21.0162 15.5753 21.0355 16.4977C21.0483 17.0915 21.0547 17.0978 21.6699 17.0789C21.9391 17.0726 22.0417 16.9904 22.0352 16.7061C22.016 15.6637 22.0352 14.6276 22.0032 13.5852C21.984 13.0103 22.0352 12.4922 22.5672 12.1385C22.5736 12.1321 22.5672 12.1006 22.5672 12.0563C21.7276 11.9363 20.9009 12.0058 20.0485 12.2269C20.8432 12.448 20.9586 13.0545 20.9714 13.7242Z" fill="#FAFAFA"/>
</g>
<path d="M47.152 22H44.592V11.776H47.152V22ZM46.272 19.72H49.112V22H46.272V19.72ZM52.9503 22L53.0383 20.28H52.9503V17.144L52.9023 16.952C52.9023 16.5733 52.8329 16.304 52.6943 16.144C52.5556 15.9787 52.2916 15.896 51.9023 15.896C51.5609 15.896 51.2223 15.9493 50.8863 16.056C50.5556 16.1627 50.2569 16.2773 49.9903 16.4L50.1423 14.384C50.3183 14.2827 50.5209 14.1893 50.7503 14.104C50.9849 14.0187 51.2436 13.9493 51.5263 13.896C51.8089 13.8373 52.1129 13.808 52.4383 13.808C52.9343 13.808 53.3636 13.872 53.7263 14C54.0889 14.128 54.3876 14.32 54.6223 14.576C54.8569 14.832 55.0303 15.1547 55.1423 15.544C55.2596 15.928 55.3183 16.3787 55.3183 16.896V22H52.9503ZM51.3743 22.12C50.8089 22.12 50.3849 21.9227 50.1023 21.528C49.8196 21.1333 49.6783 20.5653 49.6783 19.824V19.472C49.6783 18.6773 49.8623 18.1093 50.2303 17.768C50.6036 17.4267 51.1716 17.1733 51.9343 17.008L53.1583 16.736L53.4303 18.344L52.5663 18.552C52.3689 18.6 52.2196 18.6747 52.1183 18.776C52.0223 18.8773 51.9743 19.0293 51.9743 19.232V19.432C51.9743 19.656 52.0089 19.832 52.0783 19.96C52.1529 20.0827 52.2809 20.144 52.4623 20.144C52.5636 20.144 52.6463 20.1253 52.7103 20.088C52.7743 20.0453 52.8276 19.9893 52.8703 19.92C52.9129 19.8507 52.9423 19.7733 52.9583 19.688L53.2383 20.544H52.9343C52.8809 20.8427 52.7983 21.112 52.6863 21.352C52.5796 21.5867 52.4223 21.7733 52.2143 21.912C52.0063 22.0507 51.7263 22.12 51.3743 22.12ZM59.0505 22.136C58.8318 22.136 58.6212 22.1147 58.4185 22.072C58.2158 22.0347 58.0372 21.9813 57.8825 21.912L57.7385 19.776C57.8452 19.8187 57.9465 19.8533 58.0425 19.88C58.1438 19.9013 58.2452 19.912 58.3465 19.912C58.6132 19.912 58.7918 19.8347 58.8825 19.68C58.9732 19.5253 59.0185 19.3173 59.0185 19.056V11.776H61.5785V19.088C61.5785 20.0693 61.3892 20.824 61.0105 21.352C60.6372 21.8747 59.9838 22.136 59.0505 22.136ZM65.8221 22.12C64.6861 22.12 63.8408 21.824 63.2861 21.232C62.7368 20.64 62.4621 19.7573 62.4621 18.584V17.216C62.4621 16.1013 62.6995 15.2533 63.1741 14.672C63.6488 14.0907 64.3821 13.8 65.3741 13.8C66.0088 13.8 66.5315 13.9227 66.9421 14.168C67.3581 14.408 67.6675 14.768 67.8701 15.248C68.0728 15.7227 68.1741 16.3147 68.1741 17.024V17.504C68.1741 17.744 68.1635 17.984 68.1421 18.224C68.1261 18.464 68.0968 18.6987 68.0541 18.928H65.9021C65.9021 18.448 65.9021 18.0347 65.9021 17.688C65.9021 17.336 65.9021 17.0453 65.9021 16.816C65.9021 16.5707 65.8861 16.3707 65.8541 16.216C65.8275 16.0613 65.7768 15.9467 65.7021 15.872C65.6275 15.7973 65.5181 15.76 65.3741 15.76C65.1608 15.76 65.0168 15.8453 64.9421 16.016C64.8728 16.1813 64.8381 16.448 64.8381 16.816V17.936L64.8621 18.336V18.88C64.8621 19.088 64.8915 19.2667 64.9501 19.416C65.0141 19.5653 65.1075 19.688 65.2301 19.784C65.3581 19.8747 65.5155 19.944 65.7021 19.992C65.8888 20.0347 66.1101 20.056 66.3661 20.056C66.6808 20.056 66.9821 20.0267 67.2701 19.968C67.5581 19.9093 67.8248 19.8347 68.0701 19.744L67.9261 21.688C67.6648 21.8213 67.3501 21.9253 66.9821 22C66.6195 22.08 66.2328 22.12 65.8221 22.12ZM64.0061 18.928V17.296H67.5261V18.928H64.0061ZM71.4204 22.12C70.9244 22.12 70.5164 22.0347 70.1964 21.864C69.8764 21.688 69.639 21.4293 69.4844 21.088C69.335 20.7413 69.2604 20.3147 69.2604 19.808V14.256H71.7004V19.216C71.7004 19.4453 71.751 19.6107 71.8524 19.712C71.9537 19.8133 72.1244 19.864 72.3644 19.864C72.4924 19.864 72.6124 19.8533 72.7244 19.832C72.8364 19.8053 72.943 19.7733 73.0444 19.736L72.8924 21.776C72.711 21.8773 72.4977 21.96 72.2524 22.024C72.0124 22.088 71.735 22.12 71.4204 22.12ZM68.5804 15.952V13.952H73.0044L72.8524 15.952H68.5804ZM69.3084 14.096V12.296L71.7164 12.008L71.6364 14.096H69.3084ZM76.8378 22.12C75.7018 22.12 74.8564 21.824 74.3018 21.232C73.7524 20.64 73.4778 19.7573 73.4778 18.584V17.216C73.4778 16.1013 73.7151 15.2533 74.1898 14.672C74.6644 14.0907 75.3978 13.8 76.3898 13.8C77.0244 13.8 77.5471 13.9227 77.9578 14.168C78.3738 14.408 78.6831 14.768 78.8858 15.248C79.0884 15.7227 79.1898 16.3147 79.1898 17.024V17.504C79.1898 17.744 79.1791 17.984 79.1578 18.224C79.1418 18.464 79.1124 18.6987 79.0698 18.928H76.9178C76.9178 18.448 76.9178 18.0347 76.9178 17.688C76.9178 17.336 76.9178 17.0453 76.9178 16.816C76.9178 16.5707 76.9018 16.3707 76.8698 16.216C76.8431 16.0613 76.7924 15.9467 76.7178 15.872C76.6431 15.7973 76.5338 15.76 76.3898 15.76C76.1764 15.76 76.0324 15.8453 75.9578 16.016C75.8884 16.1813 75.8538 16.448 75.8538 16.816V17.936L75.8778 18.336V18.88C75.8778 19.088 75.9071 19.2667 75.9658 19.416C76.0298 19.5653 76.1231 19.688 76.2458 19.784C76.3738 19.8747 76.5311 19.944 76.7178 19.992C76.9044 20.0347 77.1258 20.056 77.3818 20.056C77.6964 20.056 77.9978 20.0267 78.2858 19.968C78.5738 19.9093 78.8404 19.8347 79.0858 19.744L78.9418 21.688C78.6804 21.8213 78.3658 21.9253 77.9978 22C77.6351 22.08 77.2484 22.12 76.8378 22.12ZM75.0218 18.928V17.296H78.5418V18.928H75.0218ZM76.3978 11.072H78.7818L77.3258 13.392H75.4858L76.3978 11.072ZM83.2909 22.12C82.1549 22.12 81.3095 21.824 80.7549 21.232C80.2055 20.64 79.9309 19.7573 79.9309 18.584V17.216C79.9309 16.1013 80.1682 15.2533 80.6429 14.672C81.1175 14.0907 81.8509 13.8 82.8429 13.8C83.4775 13.8 84.0002 13.9227 84.4109 14.168C84.8269 14.408 85.1362 14.768 85.3389 15.248C85.5415 15.7227 85.6429 16.3147 85.6429 17.024V17.504C85.6429 17.744 85.6322 17.984 85.6109 18.224C85.5949 18.464 85.5655 18.6987 85.5229 18.928H83.3709C83.3709 18.448 83.3709 18.0347 83.3709 17.688C83.3709 17.336 83.3709 17.0453 83.3709 16.816C83.3709 16.5707 83.3549 16.3707 83.3229 16.216C83.2962 16.0613 83.2455 15.9467 83.1709 15.872C83.0962 15.7973 82.9869 15.76 82.8429 15.76C82.6295 15.76 82.4855 15.8453 82.4109 16.016C82.3415 16.1813 82.3069 16.448 82.3069 16.816V17.936L82.3309 18.336V18.88C82.3309 19.088 82.3602 19.2667 82.4189 19.416C82.4829 19.5653 82.5762 19.688 82.6989 19.784C82.8269 19.8747 82.9842 19.944 83.1709 19.992C83.3575 20.0347 83.5789 20.056 83.8349 20.056C84.1495 20.056 84.4509 20.0267 84.7389 19.968C85.0269 19.9093 85.2935 19.8347 85.5389 19.744L85.3949 21.688C85.1335 21.8213 84.8189 21.9253 84.4509 22C84.0882 22.08 83.7015 22.12 83.2909 22.12ZM81.4749 18.928V17.296H84.9949V18.928H81.4749ZM45.656 40V29.776H46.272V40H45.656ZM45.984 35.312V34.792H52.952V35.312H45.984ZM45.816 30.296V29.776H53.088V30.296H45.816ZM55.4796 40V32.32H56.0716V40H55.4796ZM55.7756 30.568C55.5996 30.568 55.4636 30.5227 55.3676 30.432C55.277 30.3413 55.2316 30.2107 55.2316 30.04V30C55.2316 29.8347 55.277 29.7093 55.3676 29.624C55.4636 29.5333 55.597 29.488 55.7676 29.488C55.949 29.488 56.085 29.5333 56.1756 29.624C56.2716 29.7093 56.3196 29.8347 56.3196 30V30.04C56.3196 30.2107 56.2743 30.3413 56.1836 30.432C56.093 30.5227 55.957 30.568 55.7756 30.568ZM59.0265 40V29.4H59.6265V40H59.0265ZM74.9898 40V35.568C74.9898 34.9653 74.9044 34.4453 74.7338 34.008C74.5684 33.5707 74.2964 33.2347 73.9178 33C73.5444 32.76 73.0378 32.64 72.3978 32.64C71.8164 32.64 71.3044 32.7573 70.8618 32.992C70.4244 33.2213 70.0698 33.5333 69.7978 33.928C69.5258 34.3173 69.3551 34.76 69.2858 35.256L69.1018 34.776H69.2138C69.2778 34.3173 69.4458 33.888 69.7178 33.488C69.9951 33.0827 70.3711 32.7547 70.8458 32.504C71.3204 32.2533 71.8911 32.128 72.5578 32.128C73.2991 32.128 73.8884 32.264 74.3258 32.536C74.7684 32.8027 75.0884 33.1893 75.2858 33.696C75.4831 34.1973 75.5818 34.7973 75.5818 35.496V40H74.9898ZM62.5258 40V32.32H63.1258L63.0858 34.632L63.1258 34.672V40H62.5258ZM68.7578 40V35.568C68.7578 34.9707 68.6724 34.4533 68.5018 34.016C68.3364 33.5733 68.0644 33.2347 67.6858 33C67.3124 32.76 66.8058 32.64 66.1658 32.64C65.5844 32.64 65.0724 32.7573 64.6298 32.992C64.1924 33.2267 63.8378 33.544 63.5658 33.944C63.2991 34.3387 63.1258 34.7867 63.0458 35.288L62.8778 34.824H63.0218C63.0804 34.3493 63.2431 33.9093 63.5098 33.504C63.7818 33.0933 64.1551 32.7627 64.6298 32.512C65.1044 32.256 65.6724 32.128 66.3338 32.128C67.2351 32.128 67.9258 32.344 68.4058 32.776C68.8858 33.2027 69.1844 33.8427 69.3018 34.696C69.3231 34.8293 69.3364 34.9573 69.3418 35.08C69.3471 35.2027 69.3498 35.3253 69.3498 35.448V40H68.7578ZM81.291 40.192C80.4483 40.192 79.7283 40.0987 79.131 39.912C78.539 39.7253 78.0537 39.528 77.675 39.32L77.603 38.72C78.083 38.9867 78.619 39.2133 79.211 39.4C79.803 39.5867 80.4937 39.68 81.283 39.68C82.2163 39.68 82.931 39.544 83.427 39.272C83.923 39 84.171 38.5867 84.171 38.032V37.984C84.171 37.5947 84.0777 37.288 83.891 37.064C83.7043 36.84 83.387 36.6693 82.939 36.552C82.4963 36.4293 81.8803 36.328 81.091 36.248C80.2323 36.168 79.555 36.0533 79.059 35.904C78.5683 35.7547 78.219 35.5413 78.011 35.264C77.803 34.9867 77.699 34.6187 77.699 34.16V34.136C77.699 33.4907 77.963 32.9973 78.491 32.656C79.0243 32.3093 79.8457 32.136 80.955 32.136C81.7497 32.136 82.4323 32.2267 83.003 32.408C83.579 32.584 84.0323 32.7787 84.363 32.992L84.443 33.544C84.0323 33.2933 83.5417 33.08 82.971 32.904C82.4003 32.7227 81.7363 32.632 80.979 32.632C80.3443 32.632 79.827 32.6933 79.427 32.816C79.0323 32.9387 78.7443 33.112 78.563 33.336C78.3817 33.56 78.291 33.8267 78.291 34.136V34.168C78.291 34.5253 78.3763 34.808 78.547 35.016C78.723 35.224 79.027 35.384 79.459 35.496C79.891 35.608 80.491 35.7013 81.259 35.776C82.1497 35.856 82.8483 35.976 83.355 36.136C83.8617 36.2907 84.2217 36.5147 84.435 36.808C84.6483 37.096 84.755 37.4853 84.755 37.976V38.032C84.755 38.752 84.459 39.2933 83.867 39.656C83.2803 40.0133 82.4217 40.192 81.291 40.192Z" fill="#FAFAFA"/>
<defs>
<clipPath id="clip0_4921_1597">
<rect width="28" height="28" fill="white" transform="translate(8 12)"/>
</clipPath>
</defs>
</svg>
