<svg width="216" height="32" viewBox="0 0 216 32" fill="none" xmlns="http://www.w3.org/2000/svg">
<g clip-path="url(#clip0_4921_1597)">
<g clip-path="url(#clip1_4921_1597)">
<path d="M19.0524 17.8024C18.97 17.8024 18.8831 17.8069 18.8007 17.8069C17.9629 17.8249 17.1252 17.852 16.2829 17.861C16.2188 17.861 16.0998 17.7934 16.0906 17.7482C16.0678 17.5722 16.0815 17.3917 16.0815 17.1932C16.1593 17.1932 16.2188 17.1932 16.2783 17.1932C17.1847 17.1751 18.0911 17.1435 19.0021 17.1435C19.6658 17.148 19.9497 16.6156 19.9222 16.0966C19.8993 15.6769 19.5697 15.3926 19.1257 15.3971C18.7457 15.4017 18.4985 15.6544 18.4894 16.0515C18.4848 16.2681 18.6313 16.3809 18.8281 16.2771C18.8968 16.241 18.9426 16.1282 18.9654 16.0379C19.0112 15.889 19.1165 15.7988 19.2493 15.8574C19.3271 15.8935 19.4003 16.0379 19.4003 16.1327C19.3958 16.3628 19.2355 16.5163 18.9975 16.5479C18.8235 16.5749 18.6496 16.584 18.4756 16.593C17.7432 16.6246 17.0153 16.6562 16.2829 16.6878C16.1685 16.6923 16.054 16.6787 16.0678 16.5298C16.0906 16.2681 15.9442 16.2094 15.7199 16.2184C15.4406 16.2275 15.1614 16.2184 14.8776 16.2184C14.8776 16.0379 14.8638 15.88 14.8821 15.7266C14.905 15.5416 14.8318 15.4784 14.6578 15.4874C14.3969 15.5009 14.1314 15.5461 13.8842 15.4964C13.7148 15.4603 13.5546 15.3024 13.4356 15.167C13.4035 15.1309 13.518 14.9369 13.6004 14.8466C13.9071 14.5217 14.2138 14.2013 14.5388 13.899C15.5093 12.9964 16.4843 12.1029 17.4548 11.2049C17.5418 11.1237 17.6196 11.0379 17.7203 10.9341C17.4914 10.7311 17.29 10.5416 17.0749 10.361C16.7773 10.1129 16.7727 10.1129 16.5255 10.4017C15.5688 11.5118 14.6166 12.6264 13.6599 13.7365C13.3761 14.0659 13.0923 14.3953 12.7993 14.7338C12.1172 14.269 11.4031 13.9035 10.5699 13.8267C10.5699 13.6823 10.5608 13.5605 10.5699 13.4432C10.5837 13.2536 10.515 13.1589 10.309 13.1814C10.19 13.195 10.0664 13.1814 9.94279 13.1814C9.366 13.1724 9.36142 13.1724 9.35684 13.7275C9.35684 13.8719 9.29275 13.9215 9.16916 13.9892C8.83041 14.1742 8.47334 14.3457 8.1941 14.6029C7.54865 15.1941 7.26025 15.9793 7.1275 16.8231C7.10003 16.9856 7.0451 17.0443 6.88488 17.0397C6.67888 17.0352 6.47289 17.0533 6.26689 17.0488C6.13414 17.0488 6.07005 17.0894 6.07005 17.2293C6.07463 17.5 6.07005 17.7708 6.06089 18.0416C6.05631 18.213 6.13414 18.2627 6.29436 18.2582C6.52324 18.2536 6.75213 18.2672 6.98101 18.2672C7.11834 18.2672 7.19616 18.3168 7.25567 18.4522C7.35638 18.6869 7.46625 18.926 7.62189 19.1246C7.94691 19.5488 8.32228 19.9278 8.88534 20.0181C9.15542 20.0632 9.43008 20.0948 9.70017 20.0948C10.8217 20.0948 11.664 19.3502 11.7739 18.2582C11.8242 17.7392 11.7693 17.2383 11.4443 16.7961C11.2703 16.5659 11.0643 16.4621 10.7759 16.5163C10.4875 16.5704 10.2953 16.7374 10.2403 17.0082C10.19 17.2518 10.1946 17.5136 10.1991 17.7663C10.2083 18.2536 9.91074 18.6101 9.49875 18.547C9.16458 18.4973 8.87618 18.3258 8.7709 18.0009C8.54201 17.3015 8.53743 16.5885 8.85329 15.9116C8.96316 15.6679 9.15542 15.4197 9.37973 15.2798C10.0481 14.8556 10.7759 14.8872 11.4855 15.1715C12.2957 15.4964 12.7901 16.1327 13.0923 16.9179C13.1472 17.0623 13.225 17.1165 13.3761 17.1119C13.6141 17.1074 13.8476 17.1165 14.0856 17.121C14.2458 17.1255 14.342 17.1932 14.3465 17.3692C14.3511 17.6625 14.3511 17.9558 14.3649 18.2491C14.374 18.4071 14.3053 18.4612 14.1543 18.4748C13.8659 18.4928 13.5775 18.5289 13.2891 18.5515C13.1746 18.5605 13.1197 18.6056 13.1014 18.7275C13.0602 18.9576 13.0099 19.1878 12.9366 19.4044C12.6116 20.361 12.0897 21.1372 11.0277 21.408C10.8995 21.4396 10.8675 21.5163 10.8675 21.6381C10.8721 21.9901 10.8629 22.3466 10.8721 22.6986C10.8766 22.852 10.8171 22.8926 10.6752 22.8926C10.2998 22.8881 9.92906 22.8836 9.55368 22.8971C9.38889 22.9017 9.32022 22.8565 9.3248 22.6851C9.33395 22.3917 9.32022 22.0984 9.31564 21.8051C9.31564 21.6787 9.26987 21.602 9.12338 21.5795C8.56032 21.4892 8.00184 21.3809 7.43878 21.2906C7.35638 21.2771 7.23279 21.3042 7.18243 21.3583C6.90319 21.6517 6.63311 21.963 6.3676 22.2699C5.61686 23.1408 4.87069 24.0118 4.12452 24.8827C3.87733 25.1715 3.63471 25.4693 3.37836 25.7852C3.57062 25.9477 3.74457 26.0876 3.91395 26.2365C4.05128 26.3583 4.14741 26.3267 4.24354 26.1869C4.62807 25.6453 5.00802 25.1038 5.40628 24.5713C5.92814 23.8674 6.45458 23.1724 6.98559 22.473C7.02679 22.4188 7.11834 22.3647 7.18243 22.3737C7.6814 22.4233 7.7638 22.5 7.82789 22.9784C7.83704 23.0506 7.85993 23.1273 7.85535 23.1995C7.82789 23.4432 7.94233 23.5018 8.17122 23.4928C8.75258 23.4793 8.76174 23.4883 8.75716 24.0614C8.75716 24.2825 8.81209 24.3638 9.05471 24.3547C9.59946 24.3322 9.60404 24.3412 9.60404 24.8647C9.60862 25.5641 9.60862 26.2636 9.59946 26.963C9.59488 27.2428 9.41635 27.4504 9.18289 27.4775C9.05014 27.491 8.90823 27.482 8.87161 27.324C8.83956 27.1751 8.92196 27.0849 9.07302 27.0533C9.12338 27.0443 9.2012 27.0307 9.21951 26.9991C9.26529 26.9044 9.30191 26.8006 9.30191 26.6968C9.30191 26.6562 9.2012 26.584 9.14627 26.5795C8.61068 26.5298 8.25361 27.0082 8.45046 27.5045C8.64272 27.9919 9.26071 28.1589 9.76426 27.8565C10.0343 27.6896 10.1946 27.4639 10.1854 27.1345C10.1671 26.3222 10.1534 25.5145 10.1396 24.7022C10.1351 24.3096 10.1396 24.3186 10.5379 24.3006C10.7347 24.2916 10.808 24.3502 10.808 24.5488C10.808 25.3926 10.8354 26.232 10.8354 27.0758C10.8354 27.4684 11.0277 27.7257 11.3619 27.8746C11.696 28.0235 12.044 28.028 12.3552 27.7888C12.5933 27.6038 12.6894 27.2112 12.575 26.9224C12.4697 26.6652 12.2225 26.5253 11.8929 26.5388C11.7739 26.5434 11.7189 26.5885 11.7052 26.7103C11.6869 26.9044 11.783 26.9856 11.957 27.0172C12.0943 27.0443 12.1813 27.121 12.163 27.2654C12.1447 27.4278 12.0211 27.4414 11.8929 27.4414C11.6228 27.4414 11.4168 27.2248 11.4031 26.9179C11.371 26.1147 11.3527 25.3114 11.3161 24.5082C11.3069 24.3231 11.371 24.26 11.5587 24.26C11.8883 24.26 11.8883 24.2509 11.8883 23.9396C11.8929 23.3845 11.8929 23.38 12.4605 23.3484C12.6162 23.3394 12.6803 23.2852 12.6711 23.1318C12.6574 22.8159 12.6436 22.5 12.6436 22.1841C12.6436 22.1119 12.6803 22.0172 12.7352 21.9811C12.9275 21.8502 13.1334 21.7419 13.3806 21.5975C13.3944 21.6201 13.4173 21.6742 13.4539 21.7103C13.9574 22.2293 14.461 22.7527 14.9737 23.2672C15.7519 24.0524 16.5393 24.8286 17.3129 25.6138C17.4411 25.7446 17.5235 25.7446 17.6425 25.6138C17.8119 25.4287 17.9904 25.2573 18.1643 25.0767C18.2651 24.973 18.2788 24.8917 18.146 24.7834C17.6379 24.3638 17.1435 23.926 16.6446 23.4973C15.7748 22.7527 14.905 22.0127 14.0398 21.2636C13.9849 21.2184 13.9529 21.1147 13.9574 21.0425C13.9757 20.7672 14.0307 20.4919 14.0444 20.2166C14.049 20.0767 14.0993 20.0316 14.2275 20.0226C14.4335 20.0045 14.6349 19.9639 14.8409 19.9639C15.0561 19.9639 15.1202 19.8692 15.1064 19.6751C15.0927 19.4675 15.1064 19.2554 15.0927 19.0434C15.0836 18.8764 15.1431 18.8132 15.3124 18.8177C15.4955 18.8222 15.6787 18.8087 15.8618 18.8042C16.0083 18.7997 16.0998 18.7455 16.0723 18.5876C16.0403 18.4071 16.1227 18.3529 16.3012 18.3529C17.203 18.3619 18.1003 18.3619 19.0021 18.371C19.2905 18.3755 19.4644 18.5425 19.4553 18.8222C19.4507 18.899 19.3637 19.0388 19.3271 19.0343C19.231 19.0208 19.1394 18.9531 19.0524 18.8944C19.025 18.8719 19.0295 18.8087 19.0158 18.7681C18.9517 18.5831 18.7915 18.6327 18.6679 18.6598C18.6221 18.6688 18.5626 18.7906 18.5672 18.8583C18.5809 19.269 18.7823 19.4811 19.1486 19.4991C19.5972 19.5217 19.9222 19.2916 19.9909 18.908C20.0916 18.2807 19.6887 17.8024 19.0524 17.8024Z" fill="#FAFAFA"/>
<path d="M5.63973 20.5322C5.0492 20.5367 5.0492 20.5367 5.03547 19.9546C5.02174 19.4356 5.02174 19.4356 4.50446 19.4221C4.12451 19.413 4.12451 19.413 4.10162 19.0385C4.09704 18.9302 4.10162 18.8174 3.9414 18.8219C3.07164 18.8535 2.20187 18.876 1.33669 18.9257C1.05287 18.9392 0.851448 19.21 0.915536 19.4627C0.938425 19.5484 1.05287 19.6793 1.11696 19.6748C1.21309 19.6703 1.30464 19.5665 1.39162 19.4943C1.41451 19.4762 1.3962 19.404 1.41451 19.3905C1.49233 19.3318 1.57473 19.2641 1.6617 19.2551C1.69832 19.2506 1.78988 19.3679 1.79903 19.4356C1.83566 19.8463 1.51979 20.1441 1.10322 20.0945C0.759894 20.0538 0.563053 19.8959 0.471499 19.5665C0.315857 19.0114 0.755317 18.3751 1.30006 18.4067C2.0737 18.4519 2.85648 18.3887 3.63012 18.3706C4.07415 18.3616 4.065 18.3571 4.05584 17.9329C4.05126 17.7118 3.96887 17.6531 3.75371 17.6576C2.93888 17.6847 2.11947 17.6576 1.30922 17.7253C0.595097 17.784 0.233458 17.0033 0.402833 16.5295C0.521854 16.1955 0.915536 15.9744 1.28633 16.0466C1.53353 16.0917 1.73495 16.3806 1.71663 16.6829C1.71206 16.7416 1.65712 16.8408 1.61593 16.8408C1.5381 16.8454 1.44197 16.8183 1.37331 16.7732C1.33211 16.7461 1.33211 16.6649 1.3138 16.6062C1.26344 16.4573 1.13527 16.3986 1.00709 16.4528C0.924692 16.4843 0.833138 16.5972 0.819404 16.6874C0.782783 16.9491 1.05745 17.2064 1.36415 17.2064C2.17898 17.2019 2.99382 17.1883 3.81322 17.1838C3.96429 17.1838 4.01464 17.1251 4.01007 16.9807C4.00091 16.7957 4.01007 16.6062 4.01007 16.3986C4.28473 16.3715 4.55481 16.3354 4.82948 16.3174C4.95765 16.3084 5.01258 16.2587 5.00801 16.1369C5.00343 15.9428 4.99885 15.7443 4.98969 15.5502C4.98054 15.2659 4.98054 15.2659 5.27351 15.2659C5.52529 15.2659 5.77706 15.2659 6.02883 15.2659C6.03799 15.2389 6.04257 15.2118 6.05172 15.1892C4.76081 14.1333 3.4699 13.0818 2.16067 12.0078C0.650029 13.9618 -0.0732482 16.1459 0.00457276 18.5647C0.0778161 20.8255 0.837715 22.8517 2.30716 24.6522C3.74914 23.2804 5.16365 21.9311 6.63309 20.5367C6.25772 20.5322 5.95101 20.5322 5.63973 20.5322Z" fill="#FAFAFA"/>
<path d="M5.7588 12.7398C6.07467 13.0828 6.38137 13.4302 6.70181 13.7732C6.81625 13.8995 6.94901 14.0078 7.10923 14.1613C7.10923 13.7958 7.10923 13.4754 7.10923 13.1595C7.10465 12.6405 7.10465 12.6405 7.62651 12.6225C8.01104 12.6089 8.01104 12.6089 8.00188 12.2389C7.98815 11.6703 7.98815 11.6703 8.56036 11.6568C8.5924 11.6568 8.61987 11.6523 8.65191 11.6568C8.78924 11.6613 8.8396 11.6026 8.83502 11.4672C8.81213 10.6956 8.79382 9.9194 8.77093 9.14774C8.76178 8.84991 8.50543 8.61976 8.21245 8.64684C8.1209 8.65586 7.96526 8.75063 7.96526 8.80929C7.96526 8.90406 8.05681 9.00334 8.13006 9.08456C8.17125 9.12969 8.28112 9.12066 8.30859 9.16579C8.35894 9.23799 8.38183 9.33727 8.38641 9.42301C8.39098 9.45911 8.31774 9.5268 8.27654 9.53131C8.04308 9.54936 7.82335 9.47716 7.68602 9.29666C7.53953 9.10713 7.48002 8.87698 7.58073 8.63781C7.61277 8.55658 7.65855 8.48438 7.72264 8.35352C7.58073 8.3851 7.49375 8.40315 7.40678 8.42572C6.10213 8.80478 4.92566 9.4185 3.87737 10.2714C3.6439 10.4609 3.64848 10.4609 3.8499 10.682C4.49078 11.3634 5.1225 12.0494 5.7588 12.7398Z" fill="#FAFAFA"/>
<path d="M10.9865 11.5745C11.1422 11.5745 11.2108 11.6197 11.2062 11.7776C11.2062 11.9491 11.2383 12.1251 11.2291 12.2966C11.22 12.4861 11.307 12.5538 11.4809 12.5493C11.6732 12.5448 11.8609 12.5583 12.0531 12.5493C12.2408 12.5357 12.3095 12.5989 12.3003 12.793C12.2866 13.0727 12.2957 13.357 12.2957 13.6368C12.3141 13.6458 12.3324 13.6504 12.3507 13.6594C13.4035 12.2244 14.461 10.7893 15.5368 9.32274C14.2367 8.60523 12.8908 8.16299 11.4351 8.05469C11.4626 8.1314 11.513 8.17653 11.5496 8.22617C11.7464 8.48339 11.7464 8.78122 11.6457 9.06101C11.5587 9.29566 11.3207 9.36786 11.0827 9.37689C11.014 9.3814 10.8858 9.31823 10.8904 9.29566C10.8995 9.19638 10.9453 9.09711 10.9865 9.00234C10.9957 8.97978 11.0552 8.97527 11.0918 8.96624C11.2429 8.92563 11.3207 8.80378 11.2612 8.67743C11.22 8.5962 11.0781 8.51498 10.9819 8.51498C10.7119 8.50595 10.5013 8.75866 10.5013 9.06552C10.5013 9.74241 10.5104 10.4193 10.5104 11.0962C10.5104 11.5745 10.5104 11.5791 10.9865 11.5745Z" fill="#FAFAFA"/>
<path d="M9.26533 9.23297C9.27906 9.89181 9.29737 10.5552 9.31111 11.214C9.32026 11.6382 9.32484 11.6427 9.7643 11.6292C9.95656 11.6247 10.0298 11.566 10.0252 11.3629C10.0115 10.6183 10.0252 9.87827 10.0023 9.13369C9.98861 8.72304 10.0252 8.353 10.4052 8.10029C10.4098 8.09578 10.4052 8.07322 10.4052 8.04163C9.8055 7.95589 9.21498 8.00553 8.60614 8.16347C9.17378 8.32141 9.25617 8.75463 9.26533 9.23297Z" fill="#FAFAFA"/>
</g>
<path d="M29.61 24.72C29.638 24.2067 29.666 23.5067 29.694 22.62C29.722 21.7333 29.7407 20.7347 29.75 19.624C29.7687 18.5133 29.778 17.3653 29.778 16.18C29.778 14.9947 29.7687 13.828 29.75 12.68C29.7407 11.5227 29.722 10.4493 29.694 9.46C29.666 8.47067 29.638 7.64467 29.61 6.982C29.8433 6.954 30.2073 6.92133 30.702 6.884C31.1967 6.83733 31.71 6.814 32.242 6.814C32.5127 6.814 32.8253 6.82333 33.18 6.842C33.544 6.86067 33.7867 6.884 33.908 6.912C33.936 7.45333 33.95 8.13 33.95 8.942C33.95 9.74467 33.9407 10.636 33.922 11.616C33.9127 12.5867 33.894 13.5993 33.866 14.654C33.838 15.7087 33.8007 16.7493 33.754 17.776C33.7353 18.3733 33.712 18.9427 33.684 19.484C33.656 20.016 33.628 20.464 33.6 20.828C34.3 20.7813 35.0233 20.744 35.77 20.716C36.526 20.6787 37.2913 20.6507 38.066 20.632C38.8407 20.6133 39.606 20.604 40.362 20.604C40.39 20.8187 40.4133 21.1593 40.432 21.626C40.4507 22.0833 40.4647 22.5687 40.474 23.082C40.4927 23.5953 40.4973 24.0387 40.488 24.412C39.396 24.552 38.3087 24.6547 37.226 24.72C36.1527 24.7853 35.1307 24.8227 34.16 24.832C33.3293 24.8507 32.5267 24.8507 31.752 24.832C30.9773 24.804 30.2633 24.7667 29.61 24.72ZM46.1151 25.21C45.9005 25.21 45.6111 25.2053 45.2471 25.196C44.8925 25.1867 44.5098 25.1727 44.0991 25.154C43.6885 25.1353 43.2918 25.1167 42.9091 25.098C42.5265 25.0887 42.2091 25.0747 41.9571 25.056C42.0505 24.5053 42.1858 23.7867 42.3631 22.9C42.5498 22.0133 42.7598 21.0193 42.9931 19.918C43.2358 18.8167 43.4925 17.664 43.7631 16.46C44.0431 15.256 44.3231 14.0613 44.6031 12.876C44.8925 11.6907 45.1725 10.5707 45.4431 9.516C45.7138 8.452 45.9565 7.52333 46.1711 6.73C46.9925 6.618 47.8465 6.52 48.7331 6.436C49.6198 6.352 50.4925 6.31 51.3511 6.31C51.8085 6.31 52.2658 6.324 52.7231 6.352C53.1805 6.38 53.6285 6.422 54.0671 6.478C54.2538 7.29933 54.4358 8.256 54.6131 9.348C54.7998 10.4307 54.9865 11.7047 55.1731 13.17C55.3598 14.6353 55.5465 16.3387 55.7331 18.28C55.9198 20.212 56.1065 22.438 56.2931 24.958C56.0131 25.0047 55.6211 25.0467 55.1171 25.084C54.6225 25.1213 54.1045 25.1493 53.5631 25.168C53.0218 25.196 52.5411 25.21 52.1211 25.21C52.1025 24.9393 52.0838 24.6173 52.0651 24.244C52.0465 23.8613 52.0278 23.4507 52.0091 23.012C51.9905 22.5733 51.9718 22.1347 51.9531 21.696C51.9345 21.248 51.9158 20.8233 51.8971 20.422C51.8785 20.0113 51.8645 19.6567 51.8551 19.358C51.5565 19.358 51.2205 19.3673 50.8471 19.386C50.4738 19.4047 50.0911 19.428 49.6991 19.456C49.3071 19.4747 48.9338 19.5027 48.5791 19.54C48.2338 19.568 47.9305 19.596 47.6691 19.624C47.4078 19.652 47.2258 19.6753 47.1231 19.694C46.9738 20.3847 46.8291 21.08 46.6891 21.78C46.5585 22.4707 46.4418 23.1193 46.3391 23.726C46.2458 24.3233 46.1711 24.818 46.1151 25.21ZM47.6411 16.306C47.8931 16.2593 48.2711 16.2127 48.7751 16.166C49.2885 16.11 49.8205 16.0633 50.3711 16.026C50.9311 15.9887 51.3931 15.9653 51.7571 15.956C51.7385 15.7227 51.7105 15.3213 51.6731 14.752C51.6451 14.1733 51.6078 13.5433 51.5611 12.862C51.5238 12.1713 51.4818 11.532 51.4351 10.944C51.3978 10.356 51.3558 9.93133 51.3091 9.67C51.1411 9.67 50.8891 9.67933 50.5531 9.698C50.2265 9.71667 49.9091 9.74 49.6011 9.768C49.2931 9.796 49.0738 9.81467 48.9431 9.824C48.8871 10.0853 48.8078 10.4587 48.7051 10.944C48.6025 11.4293 48.4905 11.98 48.3691 12.596C48.2478 13.212 48.1218 13.842 47.9911 14.486C47.8605 15.1207 47.7438 15.7273 47.6411 16.306ZM73.3598 25.266C72.0811 25.266 70.9518 25.0233 69.9718 24.538C69.0011 24.0527 68.1938 23.3713 67.5498 22.494C66.9151 21.6073 66.4624 20.5667 66.1918 19.372C66.3504 19.26 66.5838 19.12 66.8918 18.952C67.1998 18.784 67.5404 18.6113 67.9138 18.434C68.2871 18.2473 68.6511 18.0793 69.0058 17.93C69.3604 17.7713 69.6544 17.65 69.8878 17.566C70.0651 18.2847 70.3311 18.9427 70.6858 19.54C71.0404 20.128 71.4604 20.5993 71.9458 20.954C72.4404 21.3087 72.9864 21.486 73.5838 21.486C74.2278 21.486 74.7364 21.29 75.1098 20.898C75.4924 20.4967 75.7678 19.918 75.9358 19.162C76.1131 18.3967 76.2018 17.4633 76.2018 16.362C76.2018 15.7833 76.1831 15.1067 76.1458 14.332C76.1084 13.548 76.0571 12.7453 75.9918 11.924C75.9358 11.1027 75.8798 10.3327 75.8238 9.614C75.7678 8.89533 75.7164 8.30267 75.6698 7.836C75.6324 7.36933 75.6091 7.10333 75.5998 7.038C75.9078 6.97267 76.2624 6.92133 76.6638 6.884C77.0651 6.83733 77.4431 6.814 77.7978 6.814C78.1711 6.814 78.5071 6.82333 78.8058 6.842C79.1138 6.86067 79.4124 6.88867 79.7018 6.926C79.7578 7.542 79.8138 8.27 79.8698 9.11C79.9258 9.94067 79.9818 10.8133 80.0378 11.728C80.0938 12.6333 80.1358 13.506 80.1638 14.346C80.2011 15.186 80.2198 15.9233 80.2198 16.558C80.2198 18.0887 80.0658 19.4047 79.7578 20.506C79.4498 21.6073 79.0018 22.5127 78.4138 23.222C77.8258 23.922 77.1071 24.44 76.2578 24.776C75.4084 25.1027 74.4424 25.266 73.3598 25.266ZM93.8521 25.182C92.9094 25.1167 91.9807 25.0607 91.0661 25.014C90.1514 24.9673 89.2181 24.93 88.2661 24.902C87.5661 24.874 86.8474 24.846 86.1101 24.818C85.3727 24.7807 84.6541 24.748 83.9541 24.72C83.8981 23.18 83.8561 21.682 83.8281 20.226C83.8001 18.7607 83.7861 17.384 83.7861 16.096C83.7861 13.9307 83.8047 12.1107 83.8421 10.636C83.8794 9.152 83.9167 8.102 83.9541 7.486C85.6901 7.178 87.2954 6.94933 88.7701 6.8C90.2541 6.65067 91.4907 6.55267 92.4801 6.506C93.4787 6.45933 94.1041 6.436 94.3561 6.436C94.3561 6.98667 94.3374 7.51867 94.3001 8.032C94.2721 8.536 94.2301 9.07267 94.1741 9.642L87.8181 10.16C87.7994 10.3093 87.7854 10.538 87.7761 10.846C87.7667 11.154 87.7574 11.49 87.7481 11.854C87.7481 12.2087 87.7481 12.54 87.7481 12.848C87.7481 13.156 87.7481 13.3893 87.7481 13.548C87.9627 13.5387 88.2521 13.534 88.6161 13.534C88.9801 13.5247 89.3861 13.5153 89.8341 13.506C90.2821 13.4873 90.7301 13.4733 91.1781 13.464C91.6261 13.4547 92.0414 13.45 92.4241 13.45C92.8161 13.4407 93.1381 13.4313 93.3901 13.422L93.3621 16.81C93.2407 16.8007 92.9887 16.7913 92.6061 16.782C92.2327 16.7727 91.7941 16.7633 91.2901 16.754C90.7954 16.7353 90.2961 16.7213 89.7921 16.712C89.2974 16.7027 88.8541 16.6933 88.4621 16.684C88.0794 16.6747 87.8087 16.6747 87.6501 16.684C87.6501 16.7867 87.6454 16.9733 87.6361 17.244C87.6361 17.5053 87.6314 17.8087 87.6221 18.154C87.6221 18.4993 87.6221 18.854 87.6221 19.218C87.6221 19.582 87.6174 19.9227 87.6081 20.24C87.6081 20.5573 87.6081 20.814 87.6081 21.01C87.7574 21.0007 88.0981 20.996 88.6301 20.996C89.1621 20.996 89.6894 20.996 90.2121 20.996C90.7254 20.996 91.2387 21.0053 91.7521 21.024C92.2747 21.0333 92.7554 21.052 93.1941 21.08C93.6327 21.0987 93.9921 21.122 94.2721 21.15C94.2627 21.4767 94.2394 21.85 94.2021 22.27C94.1741 22.6807 94.1414 23.0913 94.1041 23.502C94.0667 23.9033 94.0247 24.258 93.9781 24.566C93.9314 24.8647 93.8894 25.07 93.8521 25.182ZM96.5405 10.006C96.5032 9.81933 96.4658 9.56267 96.4285 9.236C96.4005 8.9 96.3725 8.55 96.3445 8.186C96.3258 7.822 96.3118 7.49533 96.3025 7.206C96.2932 6.90733 96.2885 6.702 96.2885 6.59C97.3432 6.51533 98.5425 6.45 99.8865 6.394C101.24 6.338 102.607 6.31 103.989 6.31C105.025 6.31 106.028 6.33333 106.999 6.38C107.979 6.41733 108.875 6.492 109.687 6.604C109.696 7.26667 109.677 7.89667 109.631 8.494C109.584 9.082 109.528 9.53 109.463 9.838C109.276 9.838 109.005 9.838 108.651 9.838C108.296 9.82867 107.899 9.81933 107.461 9.81C107.022 9.80067 106.588 9.796 106.159 9.796C105.729 9.78667 105.356 9.782 105.039 9.782C105.048 10.1273 105.062 10.6453 105.081 11.336C105.109 12.0173 105.141 12.806 105.179 13.702C105.216 14.598 105.253 15.536 105.291 16.516C105.337 17.496 105.379 18.462 105.417 19.414C105.454 20.366 105.487 21.2387 105.515 22.032C105.552 22.8253 105.58 23.4787 105.599 23.992C105.627 24.5053 105.641 24.818 105.641 24.93C105.314 24.9767 104.885 25.0187 104.353 25.056C103.83 25.1027 103.307 25.1353 102.785 25.154C102.262 25.182 101.837 25.196 101.511 25.196C101.483 24.6453 101.455 23.964 101.427 23.152C101.399 22.34 101.375 21.458 101.357 20.506C101.338 19.5447 101.319 18.5647 101.301 17.566C101.282 16.558 101.268 15.578 101.259 14.626C101.249 13.674 101.245 12.8013 101.245 12.008C101.245 11.5787 101.245 11.182 101.245 10.818C101.245 10.454 101.249 10.1273 101.259 9.838C100.923 9.85667 100.549 9.87533 100.139 9.894C99.7372 9.90333 99.3218 9.91733 98.8925 9.936C98.4632 9.95467 98.0478 9.96867 97.6465 9.978C97.2452 9.98733 96.8765 9.99667 96.5405 10.006ZM121.797 25.182C120.855 25.1167 119.926 25.0607 119.011 25.014C118.097 24.9673 117.163 24.93 116.211 24.902C115.511 24.874 114.793 24.846 114.055 24.818C113.318 24.7807 112.599 24.748 111.899 24.72C111.843 23.18 111.801 21.682 111.773 20.226C111.745 18.7607 111.731 17.384 111.731 16.096C111.731 13.9307 111.75 12.1107 111.787 10.636C111.825 9.152 111.862 8.102 111.899 7.486C113.635 7.178 115.241 6.94933 116.715 6.8C118.199 6.65067 119.436 6.55267 120.425 6.506C121.424 6.45933 122.049 6.436 122.301 6.436C122.301 6.98667 122.283 7.51867 122.245 8.032C122.217 8.536 122.175 9.07267 122.119 9.642L115.763 10.16C115.745 10.3093 115.731 10.538 115.721 10.846C115.712 11.154 115.703 11.49 115.693 11.854C115.693 12.2087 115.693 12.54 115.693 12.848C115.693 13.156 115.693 13.3893 115.693 13.548C115.908 13.5387 116.197 13.534 116.561 13.534C116.925 13.5247 117.331 13.5153 117.779 13.506C118.227 13.4873 118.675 13.4733 119.123 13.464C119.571 13.4547 119.987 13.45 120.369 13.45C120.761 13.4407 121.083 13.4313 121.335 13.422L121.307 16.81C121.186 16.8007 120.934 16.7913 120.551 16.782C120.178 16.7727 119.739 16.7633 119.235 16.754C118.741 16.7353 118.241 16.7213 117.737 16.712C117.243 16.7027 116.799 16.6933 116.407 16.684C116.025 16.6747 115.754 16.6747 115.595 16.684C115.595 16.7867 115.591 16.9733 115.581 17.244C115.581 17.5053 115.577 17.8087 115.567 18.154C115.567 18.4993 115.567 18.854 115.567 19.218C115.567 19.582 115.563 19.9227 115.553 20.24C115.553 20.5573 115.553 20.814 115.553 21.01C115.703 21.0007 116.043 20.996 116.575 20.996C117.107 20.996 117.635 20.996 118.157 20.996C118.671 20.996 119.184 21.0053 119.697 21.024C120.22 21.0333 120.701 21.052 121.139 21.08C121.578 21.0987 121.937 21.122 122.217 21.15C122.208 21.4767 122.185 21.85 122.147 22.27C122.119 22.6807 122.087 23.0913 122.049 23.502C122.012 23.9033 121.97 24.258 121.923 24.566C121.877 24.8647 121.835 25.07 121.797 25.182ZM120.047 1.13C120.411 1.34467 120.757 1.592 121.083 1.872C121.419 2.14267 121.695 2.39467 121.909 2.628C122.133 2.852 122.273 3.01066 122.329 3.104C121.965 3.188 121.494 3.33733 120.915 3.552C120.337 3.76667 119.73 4.00467 119.095 4.266C118.47 4.52733 117.896 4.77933 117.373 5.022C116.851 5.25533 116.459 5.43733 116.197 5.568L114.433 4.49C114.751 4.21 115.171 3.888 115.693 3.524C116.225 3.16 116.781 2.80533 117.359 2.46C117.938 2.10533 118.47 1.80667 118.955 1.564C119.45 1.312 119.814 1.16733 120.047 1.13ZM135.196 25.182C134.253 25.1167 133.324 25.0607 132.41 25.014C131.495 24.9673 130.562 24.93 129.61 24.902C128.91 24.874 128.191 24.846 127.454 24.818C126.716 24.7807 125.998 24.748 125.298 24.72C125.242 23.18 125.2 21.682 125.172 20.226C125.144 18.7607 125.13 17.384 125.13 16.096C125.13 13.9307 125.148 12.1107 125.186 10.636C125.223 9.152 125.26 8.102 125.298 7.486C127.034 7.178 128.639 6.94933 130.114 6.8C131.598 6.65067 132.834 6.55267 133.824 6.506C134.822 6.45933 135.448 6.436 135.7 6.436C135.7 6.98667 135.681 7.51867 135.644 8.032C135.616 8.536 135.574 9.07267 135.518 9.642L129.162 10.16C129.143 10.3093 129.129 10.538 129.12 10.846C129.11 11.154 129.101 11.49 129.092 11.854C129.092 12.2087 129.092 12.54 129.092 12.848C129.092 13.156 129.092 13.3893 129.092 13.548C129.306 13.5387 129.596 13.534 129.96 13.534C130.324 13.5247 130.73 13.5153 131.178 13.506C131.626 13.4873 132.074 13.4733 132.522 13.464C132.97 13.4547 133.385 13.45 133.768 13.45C134.16 13.4407 134.482 13.4313 134.734 13.422L134.706 16.81C134.584 16.8007 134.332 16.7913 133.95 16.782C133.576 16.7727 133.138 16.7633 132.634 16.754C132.139 16.7353 131.64 16.7213 131.136 16.712C130.641 16.7027 130.198 16.6933 129.806 16.684C129.423 16.6747 129.152 16.6747 128.994 16.684C128.994 16.7867 128.989 16.9733 128.98 17.244C128.98 17.5053 128.975 17.8087 128.966 18.154C128.966 18.4993 128.966 18.854 128.966 19.218C128.966 19.582 128.961 19.9227 128.952 20.24C128.952 20.5573 128.952 20.814 128.952 21.01C129.101 21.0007 129.442 20.996 129.974 20.996C130.506 20.996 131.033 20.996 131.556 20.996C132.069 20.996 132.582 21.0053 133.096 21.024C133.618 21.0333 134.099 21.052 134.538 21.08C134.976 21.0987 135.336 21.122 135.616 21.15C135.606 21.4767 135.583 21.85 135.546 22.27C135.518 22.6807 135.485 23.0913 135.448 23.502C135.41 23.9033 135.368 24.258 135.322 24.566C135.275 24.8647 135.233 25.07 135.196 25.182ZM152 25.14L147.786 24.916C147.758 22.8907 147.711 20.8513 147.646 18.798C147.58 16.7353 147.506 14.6913 147.422 12.666C147.338 10.6407 147.254 8.67133 147.17 6.758C148.187 6.71133 149.158 6.68333 150.082 6.674C151.006 6.65533 151.874 6.65067 152.686 6.66C153.712 6.66933 154.632 6.716 155.444 6.8C156.265 6.87467 156.998 6.968 157.642 7.08C157.688 7.64933 157.726 8.25133 157.754 8.886C157.782 9.51133 157.796 10.0433 157.796 10.482C157.441 10.454 156.918 10.4167 156.228 10.37C155.537 10.3233 154.739 10.2813 153.834 10.244C152.938 10.1973 151.986 10.174 150.978 10.174C151.006 10.4447 151.034 10.79 151.062 11.21C151.099 11.63 151.132 12.0687 151.16 12.526C151.188 12.974 151.206 13.3893 151.216 13.772C151.972 13.772 152.728 13.7953 153.484 13.842C154.249 13.8887 154.921 13.9447 155.5 14.01C156.088 14.066 156.489 14.1127 156.704 14.15C156.704 14.6353 156.699 15.144 156.69 15.676C156.68 16.208 156.652 16.754 156.606 17.314C156.176 17.2673 155.663 17.2207 155.066 17.174C154.468 17.1273 153.852 17.09 153.218 17.062C152.592 17.034 152.018 17.02 151.496 17.02C151.561 17.804 151.626 18.658 151.692 19.582C151.757 20.506 151.818 21.4487 151.874 22.41C151.93 23.362 151.972 24.272 152 25.14ZM164.841 25.21C164.523 25.21 164.141 25.2053 163.693 25.196C163.254 25.1867 162.806 25.168 162.349 25.14C161.901 25.1213 161.504 25.0887 161.159 25.042C161.14 24.4167 161.121 23.6187 161.103 22.648C161.084 21.6773 161.065 20.6507 161.047 19.568C161.037 18.4853 161.033 17.468 161.033 16.516C161.033 15.0787 161.042 13.52 161.061 11.84C161.089 10.16 161.117 8.40533 161.145 6.576C161.285 6.56667 161.504 6.562 161.803 6.562C162.111 6.55267 162.451 6.54333 162.825 6.534C163.198 6.51533 163.562 6.506 163.917 6.506C164.281 6.49667 164.584 6.492 164.827 6.492C164.873 7.53733 164.915 8.676 164.953 9.908C164.99 11.14 165.018 12.3767 165.037 13.618C165.055 14.8593 165.065 16.0353 165.065 17.146C165.065 17.678 165.06 18.2567 165.051 18.882C165.051 19.498 165.046 20.1233 165.037 20.758C165.027 21.3927 165.013 22.004 164.995 22.592C164.976 23.1707 164.953 23.6887 164.925 24.146C164.897 24.6033 164.869 24.958 164.841 25.21ZM168.708 24.72C168.736 24.2067 168.764 23.5067 168.792 22.62C168.82 21.7333 168.838 20.7347 168.848 19.624C168.866 18.5133 168.876 17.3653 168.876 16.18C168.876 14.9947 168.866 13.828 168.848 12.68C168.838 11.5227 168.82 10.4493 168.792 9.46C168.764 8.47067 168.736 7.64467 168.708 6.982C168.941 6.954 169.305 6.92133 169.8 6.884C170.294 6.83733 170.808 6.814 171.34 6.814C171.61 6.814 171.923 6.82333 172.278 6.842C172.642 6.86067 172.884 6.884 173.006 6.912C173.034 7.45333 173.048 8.13 173.048 8.942C173.048 9.74467 173.038 10.636 173.02 11.616C173.01 12.5867 172.992 13.5993 172.964 14.654C172.936 15.7087 172.898 16.7493 172.852 17.776C172.833 18.3733 172.81 18.9427 172.782 19.484C172.754 20.016 172.726 20.464 172.698 20.828C173.398 20.7813 174.121 20.744 174.868 20.716C175.624 20.6787 176.389 20.6507 177.164 20.632C177.938 20.6133 178.704 20.604 179.46 20.604C179.488 20.8187 179.511 21.1593 179.53 21.626C179.548 22.0833 179.562 22.5687 179.572 23.082C179.59 23.5953 179.595 24.0387 179.586 24.412C178.494 24.552 177.406 24.6547 176.324 24.72C175.25 24.7853 174.228 24.8227 173.258 24.832C172.427 24.8507 171.624 24.8507 170.85 24.832C170.075 24.804 169.361 24.7667 168.708 24.72ZM182.175 25.056C182.175 24.272 182.179 23.3107 182.189 22.172C182.198 21.0333 182.212 19.806 182.231 18.49C182.259 17.174 182.287 15.844 182.315 14.5C182.343 13.156 182.375 11.882 182.413 10.678C182.45 9.474 182.492 8.41933 182.539 7.514C182.94 7.47667 183.407 7.44867 183.939 7.43C184.48 7.402 185.012 7.38333 185.535 7.374C186.057 7.35533 186.501 7.346 186.865 7.346C187.229 7.33667 187.434 7.332 187.481 7.332C187.499 7.36933 187.569 7.60733 187.691 8.046C187.821 8.48467 187.989 9.054 188.195 9.754C188.4 10.454 188.619 11.224 188.853 12.064C189.095 12.904 189.338 13.7627 189.581 14.64C189.823 15.508 190.047 16.3293 190.253 17.104C190.467 17.8787 190.645 18.546 190.785 19.106C190.925 19.666 191.009 20.0487 191.037 20.254L190.589 20.31C190.691 20.03 190.841 19.5727 191.037 18.938C191.242 18.294 191.475 17.552 191.737 16.712C191.998 15.8627 192.264 14.9713 192.535 14.038C192.815 13.1047 193.081 12.1993 193.333 11.322C193.594 10.4353 193.818 9.64667 194.005 8.956C194.191 8.256 194.322 7.724 194.397 7.36C194.751 7.36 195.199 7.36933 195.741 7.388C196.282 7.40667 196.828 7.43467 197.379 7.472C197.929 7.5 198.382 7.54667 198.737 7.612C198.923 8.47067 199.054 9.586 199.129 10.958C199.203 12.3207 199.241 13.7673 199.241 15.298C199.241 16.4833 199.227 17.6873 199.199 18.91C199.171 20.1233 199.129 21.262 199.073 22.326C199.026 23.3807 198.975 24.2627 198.919 24.972C198.517 24.972 198.079 24.9673 197.603 24.958C197.136 24.9393 196.688 24.916 196.259 24.888C195.839 24.8507 195.503 24.8273 195.251 24.818C195.307 24.0993 195.353 23.2267 195.391 22.2C195.437 21.164 195.475 20.1 195.503 19.008C195.521 18.336 195.535 17.65 195.545 16.95C195.554 16.25 195.563 15.6107 195.573 15.032C195.582 14.444 195.587 13.996 195.587 13.688C195.484 14.08 195.33 14.598 195.125 15.242C194.929 15.886 194.705 16.5953 194.453 17.37C194.201 18.1447 193.935 18.9287 193.655 19.722C193.384 20.5153 193.123 21.2667 192.871 21.976C192.628 22.6853 192.409 23.2967 192.213 23.81C192.026 24.314 191.886 24.6593 191.793 24.846C191.671 24.8553 191.489 24.8647 191.247 24.874C191.013 24.874 190.831 24.874 190.701 24.874C190.467 24.874 190.229 24.8647 189.987 24.846C189.744 24.818 189.478 24.79 189.189 24.762C189.17 24.65 189.109 24.3933 189.007 23.992C188.904 23.5907 188.773 23.0867 188.615 22.48C188.456 21.8733 188.283 21.206 188.097 20.478C187.91 19.75 187.719 19.008 187.523 18.252C187.327 17.4867 187.131 16.7493 186.935 16.04C186.748 15.3307 186.575 14.6913 186.417 14.122C186.267 13.5433 186.141 13.086 186.039 12.75C186.039 13.646 186.039 14.6213 186.039 15.676C186.048 16.7213 186.053 17.762 186.053 18.798C186.053 19.834 186.053 20.7907 186.053 21.668C186.062 22.5453 186.067 23.2827 186.067 23.88C186.067 24.468 186.067 24.8367 186.067 24.986C185.777 24.9953 185.409 25.0047 184.961 25.014C184.513 25.0233 184.046 25.0327 183.561 25.042C183.075 25.0513 182.613 25.056 182.175 25.056ZM208.708 25.21C207.952 25.21 207.201 25.112 206.454 24.916C205.707 24.72 204.998 24.4447 204.326 24.09C203.663 23.726 203.061 23.3013 202.52 22.816C201.988 22.3307 201.554 21.8033 201.218 21.234C201.274 21.1407 201.409 20.9913 201.624 20.786C201.839 20.5807 202.086 20.3613 202.366 20.128C202.646 19.8853 202.921 19.6613 203.192 19.456C203.472 19.2413 203.701 19.0873 203.878 18.994C204.149 19.33 204.452 19.68 204.788 20.044C205.124 20.3987 205.497 20.7347 205.908 21.052C206.328 21.3693 206.785 21.626 207.28 21.822C207.775 22.018 208.307 22.116 208.876 22.116C209.557 22.116 210.103 21.99 210.514 21.738C210.925 21.4767 211.223 21.15 211.41 20.758C211.597 20.366 211.69 19.9693 211.69 19.568C211.69 19.232 211.601 18.9193 211.424 18.63C211.247 18.3313 210.99 18.0607 210.654 17.818C210.327 17.566 209.926 17.3327 209.45 17.118C208.983 16.894 208.456 16.6793 207.868 16.474C206.757 16.0727 205.759 15.6433 204.872 15.186C203.985 14.7193 203.281 14.15 202.758 13.478C202.245 12.806 201.988 11.9613 201.988 10.944C201.988 9.88 202.282 8.99333 202.87 8.284C203.467 7.56533 204.247 7.024 205.208 6.66C206.179 6.296 207.229 6.114 208.358 6.114C209.254 6.114 210.117 6.22133 210.948 6.436C211.779 6.65067 212.535 6.94933 213.216 7.332C213.907 7.71467 214.471 8.16733 214.91 8.69C214.798 8.86733 214.611 9.11467 214.35 9.432C214.089 9.74 213.809 10.048 213.51 10.356C213.221 10.664 212.973 10.9067 212.768 11.084C212.441 10.748 212.045 10.426 211.578 10.118C211.121 9.81 210.612 9.558 210.052 9.362C209.492 9.166 208.899 9.068 208.274 9.068C207.565 9.068 206.981 9.22667 206.524 9.544C206.067 9.86133 205.838 10.314 205.838 10.902C205.838 11.1913 205.903 11.448 206.034 11.672C206.174 11.896 206.361 12.092 206.594 12.26C206.837 12.428 207.112 12.5773 207.42 12.708C207.728 12.8387 208.055 12.96 208.4 13.072C209.352 13.38 210.257 13.702 211.116 14.038C211.975 14.3647 212.74 14.752 213.412 15.2C214.084 15.6387 214.611 16.18 214.994 16.824C215.377 17.468 215.568 18.2613 215.568 19.204C215.568 20.044 215.405 20.828 215.078 21.556C214.751 22.284 214.285 22.9233 213.678 23.474C213.071 24.0153 212.348 24.44 211.508 24.748C210.677 25.056 209.744 25.21 208.708 25.21Z" fill="#FAFAFA"/>
</g>
<defs>
<clipPath id="clip0_4921_1597">
<rect width="216" height="32" fill="white"/>
</clipPath>
<clipPath id="clip1_4921_1597">
<rect width="20" height="20" fill="white" transform="translate(0 8)"/>
</clipPath>
</defs>
</svg>
