<svg width="121" height="16" viewBox="0 0 121 16" fill="none" xmlns="http://www.w3.org/2000/svg">
<path d="M2.7793 2.04492V13.4004H8.73828V15H0.634766V2.04492H2.7793ZM11.96 12.0117C11.96 12.5391 12.0655 12.9316 12.2764 13.1895C12.4991 13.4473 12.8155 13.5996 13.2256 13.6465V15.0703C13.1788 15.082 13.1026 15.0879 12.9971 15.0879C12.5987 15.0879 12.212 15.0352 11.837 14.9297C11.4737 14.8242 11.1514 14.6543 10.8702 14.4199C10.5889 14.1855 10.3663 13.875 10.2022 13.4883C10.0498 13.1016 9.97367 12.627 9.97367 12.0645C9.97367 11.5254 10.085 11.0625 10.3077 10.6758C10.542 10.2773 10.835 9.95508 11.1866 9.70898C11.5498 9.45117 11.96 9.26367 12.417 9.14648C12.8741 9.01758 13.337 8.95312 13.8057 8.95312H14.5791V10.2012H14.1924C13.958 10.2012 13.712 10.2246 13.4541 10.2715C13.1963 10.3184 12.9561 10.4062 12.7334 10.5352C12.5108 10.6641 12.3233 10.8516 12.1709 11.0977C12.0303 11.332 11.96 11.6367 11.96 12.0117ZM17.4268 12.0645C17.4268 12.1582 17.4327 12.2988 17.4444 12.4863C17.4561 12.6621 17.4795 12.8438 17.5147 13.0312C17.5498 13.2188 17.6026 13.3887 17.6729 13.541C17.7549 13.6934 17.8604 13.793 17.9893 13.8398L17.4268 15.0176C17.2745 15.0176 17.1104 14.9824 16.9346 14.9121C16.7705 14.8418 16.6065 14.7422 16.4424 14.6133C16.2901 14.4844 16.1553 14.3438 16.0381 14.1914C15.9327 14.0273 15.8506 13.8516 15.792 13.6641C15.6748 13.957 15.4405 14.2207 15.0889 14.4551C14.7491 14.6777 14.3682 14.8418 13.9463 14.9473V13.6113C14.2276 13.5527 14.4795 13.4414 14.7022 13.2773C14.9366 13.1016 15.1358 12.8965 15.2998 12.6621V8.95312C15.2998 8.37891 15.2705 7.92188 15.212 7.58203C15.1534 7.24219 15.0538 6.99609 14.9131 6.84375C14.7725 6.67969 14.5967 6.58008 14.3858 6.54492C14.1866 6.49805 13.9463 6.47461 13.6651 6.47461C13.4073 6.47461 13.1612 6.50977 12.9268 6.58008C12.7041 6.63867 12.4932 6.71484 12.294 6.80859C12.1065 6.89062 11.9366 6.98438 11.7842 7.08984C11.6436 7.19531 11.5381 7.27734 11.4678 7.33594L10.6768 6.12305C10.794 5.99414 10.9698 5.86523 11.2041 5.73633C11.4385 5.5957 11.708 5.47266 12.0127 5.36719C12.3174 5.26172 12.6455 5.17969 12.9971 5.12109C13.3604 5.05078 13.7354 5.01562 14.1221 5.01562C14.4737 5.01562 14.8135 5.05078 15.1416 5.12109C15.4815 5.19141 15.7862 5.30859 16.0557 5.47266C16.337 5.63672 16.5772 5.85938 16.7764 6.14062C16.9873 6.41016 17.1338 6.75 17.2159 7.16016C17.2979 7.57031 17.3506 7.98633 17.3741 8.4082C17.4092 8.81836 17.4268 9.22852 17.4268 9.63867V11.9238V12.0645ZM31.3937 1.78125V11.8711C31.3937 12.4805 31.2823 12.9961 31.0597 13.418C30.837 13.8281 30.5382 14.1621 30.1632 14.4199C29.7882 14.666 29.3546 14.8418 28.8624 14.9473C28.382 15.041 27.8839 15.0879 27.3683 15.0879C27.1105 15.0879 26.8058 15.0586 26.4542 15C26.1144 14.9531 25.757 14.877 25.382 14.7715C25.0187 14.6543 24.6671 14.5254 24.3273 14.3848C23.9874 14.2441 23.7003 14.0859 23.4659 13.9102L24.3624 12.4863C24.4796 12.5684 24.6437 12.6562 24.8546 12.75C25.0773 12.832 25.3175 12.9141 25.5753 12.9961C25.8331 13.0664 26.1027 13.1309 26.3839 13.1895C26.6652 13.248 26.9288 13.2773 27.1749 13.2773C27.796 13.2773 28.2882 13.1602 28.6515 12.9258C29.0265 12.6797 29.2257 12.2695 29.2491 11.6953V1.78125H31.3937ZM38.5177 4.99805C39.1505 5.05664 39.7189 5.22656 40.2228 5.50781C40.7384 5.78906 41.1779 6.15234 41.5412 6.59766C41.9045 7.04297 42.1798 7.55273 42.3673 8.12695C42.5666 8.70117 42.6662 9.29883 42.6662 9.91992C42.6662 10.2012 42.6486 10.4824 42.6134 10.7637H36.5841V9.2168H40.6447C40.6447 8.91211 40.592 8.61914 40.4865 8.33789C40.3927 8.05664 40.2463 7.79883 40.047 7.56445C39.8595 7.31836 39.6369 7.11328 39.3791 6.94922C39.1213 6.78516 38.8341 6.68555 38.5177 6.65039V4.99805ZM38.4474 13.3477C38.5763 13.3477 38.7345 13.3359 38.922 13.3125C39.1213 13.2773 39.3263 13.2246 39.5373 13.1543C39.7599 13.0723 39.9767 12.9727 40.1877 12.8555C40.4103 12.7383 40.6037 12.5977 40.7677 12.4336L41.5412 13.6113C41.1545 14.0918 40.7033 14.4551 40.1877 14.7012C39.672 14.9473 39.0158 15.0703 38.2189 15.0703C37.5744 15.0703 36.9709 14.9414 36.4084 14.6836C35.8459 14.4141 35.3654 14.0508 34.967 13.5938C34.5685 13.1367 34.2521 12.6035 34.0177 11.9941C33.7834 11.3848 33.6662 10.7285 33.6662 10.0254C33.6662 9.35742 33.7716 8.72461 33.9826 8.12695C34.2052 7.5293 34.5041 7.00781 34.8791 6.5625C35.2541 6.10547 35.6877 5.73633 36.1798 5.45508C36.6838 5.17383 37.2228 5.01562 37.797 4.98047V6.66797C37.3634 6.75 37.006 6.92578 36.7248 7.19531C36.4435 7.46484 36.2209 7.77539 36.0568 8.12695C35.9045 8.4668 35.7931 8.81836 35.7228 9.18164C35.6642 9.54492 35.6349 9.85547 35.6349 10.1133C35.6349 10.5703 35.6877 10.998 35.7931 11.3965C35.9103 11.7832 36.0861 12.123 36.3205 12.416C36.5548 12.6973 36.842 12.9258 37.1818 13.1016C37.5334 13.2656 37.9552 13.3477 38.4474 13.3477ZM47.8742 11.9941C47.8742 12.3926 47.927 12.7031 48.0324 12.9258C48.1379 13.1484 48.2844 13.3184 48.4719 13.4355C48.6711 13.5527 48.8879 13.6289 49.1223 13.6641C49.3684 13.6875 49.6262 13.6992 49.8957 13.6992V15C49.7434 15.0234 49.591 15.041 49.4387 15.0527C49.3098 15.0645 49.1516 15.0703 48.9641 15.0703C48.7883 15.082 48.6125 15.0879 48.4367 15.0879C48.2609 15.0879 48.0793 15.082 47.8918 15.0703C47.716 15.0586 47.5637 15.041 47.4348 15.0176C47.0363 14.9473 46.7258 14.7773 46.5031 14.5078C46.2805 14.2266 46.1105 13.9219 45.9934 13.5938C45.8879 13.2539 45.8176 12.9258 45.7824 12.6094C45.759 12.293 45.7473 12.0469 45.7473 11.8711V6.52734H44.4465V5.08594H45.7473V2.27344H47.8742V5.08594H49.4562V6.52734H47.8742V11.9941ZM56.4573 4.99805C57.0901 5.05664 57.6584 5.22656 58.1623 5.50781C58.678 5.78906 59.1174 6.15234 59.4807 6.59766C59.844 7.04297 60.1194 7.55273 60.3069 8.12695C60.5061 8.70117 60.6057 9.29883 60.6057 9.91992C60.6057 10.2012 60.5881 10.4824 60.553 10.7637H54.5237V9.2168H58.5842C58.5842 8.91211 58.5315 8.61914 58.426 8.33789C58.3323 8.05664 58.1858 7.79883 57.9866 7.56445C57.7991 7.31836 57.5764 7.11328 57.3186 6.94922C57.0608 6.78516 56.7737 6.68555 56.4573 6.65039V4.99805ZM56.387 13.3477C56.5159 13.3477 56.6741 13.3359 56.8616 13.3125C57.0608 13.2773 57.2659 13.2246 57.4768 13.1543C57.6995 13.0723 57.9162 12.9727 58.1272 12.8555C58.3498 12.7383 58.5432 12.5977 58.7073 12.4336L59.4807 13.6113C59.094 14.0918 58.6428 14.4551 58.1272 14.7012C57.6116 14.9473 56.9553 15.0703 56.1584 15.0703C55.5139 15.0703 54.9104 14.9414 54.3479 14.6836C53.7854 14.4141 53.3049 14.0508 52.9065 13.5938C52.508 13.1367 52.1916 12.6035 51.9573 11.9941C51.7229 11.3848 51.6057 10.7285 51.6057 10.0254C51.6057 9.35742 51.7112 8.72461 51.9221 8.12695C52.1448 7.5293 52.4436 7.00781 52.8186 6.5625C53.1936 6.10547 53.6272 5.73633 54.1194 5.45508C54.6233 5.17383 55.1623 5.01562 55.7366 4.98047V6.66797C55.303 6.75 54.9455 6.92578 54.6643 7.19531C54.383 7.46484 54.1604 7.77539 53.9963 8.12695C53.844 8.4668 53.7327 8.81836 53.6623 9.18164C53.6037 9.54492 53.5745 9.85547 53.5745 10.1133C53.5745 10.5703 53.6272 10.998 53.7327 11.3965C53.8498 11.7832 54.0256 12.123 54.26 12.416C54.4944 12.6973 54.7815 12.9258 55.1213 13.1016C55.4729 13.2656 55.8948 13.3477 56.387 13.3477ZM57.8459 1.3418L55.9299 3.83789H54.5237L55.7014 1.3418H57.8459ZM67.5891 4.99805C68.222 5.05664 68.7903 5.22656 69.2942 5.50781C69.8098 5.78906 70.2493 6.15234 70.6126 6.59766C70.9759 7.04297 71.2513 7.55273 71.4388 8.12695C71.638 8.70117 71.7376 9.29883 71.7376 9.91992C71.7376 10.2012 71.72 10.4824 71.6848 10.7637H65.6555V9.2168H69.7161C69.7161 8.91211 69.6634 8.61914 69.5579 8.33789C69.4641 8.05664 69.3177 7.79883 69.1184 7.56445C68.9309 7.31836 68.7083 7.11328 68.4505 6.94922C68.1927 6.78516 67.9055 6.68555 67.5891 6.65039V4.99805ZM67.5188 13.3477C67.6477 13.3477 67.8059 13.3359 67.9934 13.3125C68.1927 13.2773 68.3977 13.2246 68.6087 13.1543C68.8313 13.0723 69.0481 12.9727 69.2591 12.8555C69.4817 12.7383 69.6751 12.5977 69.8391 12.4336L70.6126 13.6113C70.2259 14.0918 69.7747 14.4551 69.2591 14.7012C68.7434 14.9473 68.0872 15.0703 67.2903 15.0703C66.6458 15.0703 66.0423 14.9414 65.4798 14.6836C64.9173 14.4141 64.4368 14.0508 64.0384 13.5938C63.6399 13.1367 63.3235 12.6035 63.0891 11.9941C62.8548 11.3848 62.7376 10.7285 62.7376 10.0254C62.7376 9.35742 62.843 8.72461 63.054 8.12695C63.2766 7.5293 63.5755 7.00781 63.9505 6.5625C64.3255 6.10547 64.7591 5.73633 65.2513 5.45508C65.7552 5.17383 66.2942 5.01562 66.8684 4.98047V6.66797C66.4348 6.75 66.0774 6.92578 65.7962 7.19531C65.5149 7.46484 65.2923 7.77539 65.1282 8.12695C64.9759 8.4668 64.8645 8.81836 64.7942 9.18164C64.7356 9.54492 64.7063 9.85547 64.7063 10.1133C64.7063 10.5703 64.7591 10.998 64.8645 11.3965C64.9817 11.7832 65.1575 12.123 65.3919 12.416C65.6263 12.6973 65.9134 12.9258 66.2532 13.1016C66.6048 13.2656 67.0266 13.3477 67.5188 13.3477ZM78.5502 2.04492H80.6947V15H78.5502V2.04492ZM86.1087 9.16406H81.4154V7.72266H86.1087V9.16406ZM86.6537 2.04492V3.64453H81.4154V2.04492H86.6537ZM90.3676 15H88.223V5.08594H90.3676V15ZM90.5609 1.92188C90.5609 2.27344 90.4379 2.57227 90.1918 2.81836C89.9457 3.05273 89.6469 3.16992 89.2953 3.16992C88.9437 3.16992 88.6449 3.04688 88.3988 2.80078C88.1645 2.55469 88.0473 2.26172 88.0473 1.92188C88.0473 1.57031 88.1703 1.27148 88.4164 1.02539C88.6625 0.779297 88.9555 0.65625 89.2953 0.65625C89.6469 0.65625 89.9457 0.779297 90.1918 1.02539C90.4379 1.27148 90.5609 1.57031 90.5609 1.92188ZM94.9252 11.9766C94.9252 12.375 94.978 12.6914 95.0834 12.9258C95.1889 13.1484 95.3354 13.3184 95.5229 13.4355C95.7104 13.541 95.9213 13.6113 96.1557 13.6465C96.4018 13.6816 96.6655 13.6992 96.9467 13.6992V15C96.7944 15.0234 96.6362 15.041 96.4721 15.0527C96.3432 15.0645 96.1909 15.0703 96.0151 15.0703C95.8393 15.082 95.6635 15.0879 95.4877 15.0879C95.312 15.0879 95.1362 15.082 94.9604 15.0703C94.7846 15.0586 94.6264 15.041 94.4858 15.0176C94.0873 14.9355 93.7768 14.7598 93.5541 14.4902C93.3315 14.2207 93.1616 13.9219 93.0444 13.5938C92.9272 13.2539 92.851 12.9258 92.8159 12.6094C92.7924 12.293 92.7807 12.0469 92.7807 11.8711V11.6602V1.3418H94.9252V11.9766ZM100.661 5.08594L100.889 6.10547V15H98.7446V5.08594H100.661ZM108.957 4.98047C109.356 4.98047 109.731 5.0625 110.082 5.22656C110.434 5.37891 110.739 5.60156 110.997 5.89453C111.266 6.1875 111.471 6.53906 111.612 6.94922C111.764 7.34766 111.84 7.78125 111.84 8.25V15H109.731V9.60352C109.731 9.20508 109.725 8.83008 109.713 8.47852C109.713 8.11523 109.678 7.79297 109.608 7.51172C109.538 7.23047 109.42 7.01367 109.256 6.86133C109.104 6.69727 108.864 6.61523 108.536 6.61523C108.454 6.61523 108.278 6.63281 108.008 6.66797C107.739 6.70312 107.428 6.80273 107.077 6.9668V5.57812C107.393 5.39063 107.715 5.24414 108.043 5.13867C108.372 5.0332 108.676 4.98047 108.957 4.98047ZM105.916 6.33398C106.057 6.54492 106.157 6.77344 106.215 7.01953C106.286 7.25391 106.327 7.5 106.338 7.75781C106.362 8.01562 106.368 8.28516 106.356 8.56641C106.356 8.83594 106.356 9.12305 106.356 9.42773V15H104.229V9.60352C104.229 9.20508 104.229 8.83008 104.229 8.47852C104.229 8.11523 104.194 7.79297 104.124 7.51172C104.053 7.23047 103.936 7.01367 103.772 6.86133C103.608 6.69727 103.368 6.61523 103.051 6.61523C102.911 6.61523 102.7 6.64453 102.418 6.70312C102.149 6.75 101.879 6.83789 101.61 6.9668V5.57812C101.891 5.41406 102.19 5.2793 102.506 5.17383C102.834 5.06836 103.157 5.01562 103.473 5.01562C104.012 5.01562 104.463 5.12695 104.827 5.34961C105.202 5.57227 105.565 5.90039 105.916 6.33398ZM114.095 7.91602C114.095 7.4707 114.177 7.07227 114.341 6.7207C114.505 6.35742 114.734 6.05273 115.027 5.80664C115.32 5.54883 115.648 5.34961 116.011 5.20898C116.386 5.05664 116.773 4.96289 117.171 4.92773V6.68555C116.867 6.74414 116.626 6.86719 116.451 7.05469C116.287 7.24219 116.205 7.50586 116.205 7.8457C116.205 8.12695 116.293 8.35547 116.468 8.53125C116.656 8.69531 116.89 8.8418 117.171 8.9707V10.8516C116.972 10.793 116.767 10.7285 116.556 10.6582C116.357 10.5762 116.158 10.4883 115.959 10.3945C115.337 10.0664 114.869 9.7207 114.552 9.35742C114.248 8.99414 114.095 8.51367 114.095 7.91602ZM119.966 7.17773C119.65 7.01367 119.31 6.89062 118.947 6.80859C118.595 6.72656 118.244 6.67383 117.892 6.65039V4.91016C118.419 4.93359 118.906 5.00977 119.351 5.13867C119.796 5.25586 120.23 5.44922 120.652 5.71875L119.966 7.17773ZM115.027 12.7852C115.261 12.9492 115.537 13.1016 115.853 13.2422C116.181 13.3828 116.591 13.4531 117.084 13.4531H117.171V15.0879C116.878 15.0879 116.609 15.0762 116.363 15.0527C116.117 15.041 115.871 15.0059 115.625 14.9473C115.39 14.877 115.15 14.7832 114.904 14.666C114.658 14.5488 114.4 14.3965 114.13 14.209L115.027 12.7852ZM117.892 9.25195C118.244 9.36914 118.601 9.49805 118.964 9.63867C119.328 9.7793 119.656 9.95508 119.949 10.166C120.253 10.377 120.5 10.6406 120.687 10.957C120.886 11.2617 120.986 11.6484 120.986 12.1172C120.986 12.5742 120.904 12.9727 120.74 13.3125C120.576 13.6523 120.353 13.9453 120.072 14.1914C119.802 14.4375 119.48 14.6309 119.105 14.7715C118.73 14.9121 118.326 15.0059 117.892 15.0527V13.3828C118.291 13.3125 118.595 13.1895 118.806 13.0137C119.029 12.8262 119.14 12.5801 119.14 12.2754C119.14 11.9707 119.017 11.7363 118.771 11.5723C118.537 11.3965 118.244 11.2441 117.892 11.1152V9.25195Z" fill="#FAFAFA"/>
</svg>
